<?xml version="1.0" encoding="utf-8"?>
<!-- Generator: Adobe Illustrator 19.1.0, SVG Export Plug-In . SVG Version: 6.00 Build 0)  -->
<svg version="1.1" id="Layer_1" xmlns="http://www.w3.org/2000/svg" xmlns:xlink="http://www.w3.org/1999/xlink" x="0px" y="0px"
	 viewBox="0 0 1800 1000" style="enable-background:new 0 0 1800 1000;" xml:space="preserve">
<style type="text/css">
	.st0{fill:#FFFFFF;}
</style>
<g>
	<g>
		<g>
			<path class="st0" d="M1180.1,698.8c-32,0-48-28.1-62.1-52.8c-13.5-23.8-26.3-46.2-50.7-46.2c-24.4,0-37.2,22.4-50.7,46.2
				c-14.1,24.8-30.1,52.8-62.1,52.8c-32,0-48-28.1-62.1-52.8c-13.5-23.8-26.3-46.2-50.7-46.2s-37.2,22.4-50.7,46.2
				c-14.1,24.8-30.1,52.8-62.1,52.8c-32,0-48-28.1-62.1-52.8c-13.5-23.8-26.3-46.2-50.7-46.2v-13.1c32,0,48,28.1,62.1,52.8
				c13.5,23.8,26.3,46.2,50.7,46.2s37.2-22.4,50.7-46.2c14.1-24.8,30.1-52.8,62.1-52.8c32,0,48,28.1,62.1,52.8
				c13.5,23.8,26.3,46.2,50.7,46.2c24.4,0,37.2-22.4,50.7-46.2c14.1-24.8,30.1-52.8,62.1-52.8s48,28.1,62.1,52.8
				c13.5,23.8,26.3,46.2,50.7,46.2V698.8z"/>
		</g>
		<path class="st0" d="M857.3,10.2l-523.7,857h1132.9L857.3,10.2z M1366.6,815.7H425.4l435.1-712L1366.6,815.7z"/>
		<g>
			<path class="st0" d="M658.3,947.4c0,14.2-6.5,24.6-17.7,24.6c-4.5,0-8.2-1.6-10.9-4.8v22.6h-13.7v-67h12.8l0,6.7
				c3.7-4.7,8.4-6.7,12.8-6.7C653.4,922.9,658.3,932.4,658.3,947.4z M629.6,938.4v19.4c1.9,2.8,3.9,4.1,6.8,4.1
				c4.9,0,7.7-4,7.7-14.4c0-11.5-2.6-14.5-6.9-14.5C634,933.1,631.6,935.1,629.6,938.4z"/>
			<path class="st0" d="M708.6,947.4c0,15.4-8.2,24.6-22.4,24.6c-14.1,0-22.4-9-22.4-24.6c0-14.7,8.2-24.6,22.4-24.6
				C700.4,922.9,708.6,932.6,708.6,947.4z M678,947.5c0,10.2,2.6,14.5,8.2,14.5c5.6,0,8.2-4.3,8.2-14.6c0-10-2.6-14.3-8.2-14.3
				C680.6,933.1,678,937.4,678,947.5z"/>
			<path class="st0" d="M741,957.9c0-3-1.7-4.1-10.9-6.6c-8.4-2.3-14.2-5.9-14.2-14.1c0-8.2,7-14.3,20-14.3c8.2,0,14.1,2.3,18.7,5.6
				l-5.5,8.1c-3.8-2.3-8.3-3.9-12.8-3.9c-4.5,0-6.6,1.1-6.6,3.6c0,2.3,1.8,3.4,10.8,5.9c8.9,2.5,14.8,5.6,14.8,14.6
				c0,10.2-10.1,15.3-21.8,15.3c-8.9,0-15.8-2.8-20.5-6.9l6.9-7.7c3.6,2.8,8.2,4.9,13.5,4.9C737.9,962.2,741,960.8,741,957.9z"/>
			<path class="st0" d="M788.1,972c-12.3,0-17.8-6.6-17.8-17.2v-20.9h-9.6l0-11.1h9.6l0-10H784l0,10h14.8l0,11.1H784v20.9
				c0,4.6,2,6.3,6.6,6.3c3.2,0,6.1-0.9,8.2-2.1v11.1C794.5,972,794.5,972,788.1,972z"/>
			<path class="st0" d="M830.7,956.1c0,3.7,2.3,5.1,5.9,5.1c2.4,0,4.7-0.6,6.6-1.4l0,10.6c-3.6,1.4-4.2,1.6-10.1,1.6
				c-11.1,0-16.1-6.9-16.1-17.7v-31.5h-13.5v-10h27.2V956.1z"/>
			<path class="st0" d="M894.1,947.4c0,15.4-8.2,24.6-22.4,24.6c-14.1,0-22.4-9-22.4-24.6c0-14.7,8.2-24.6,22.4-24.6
				C886,922.9,894.1,932.6,894.1,947.4z M863.5,947.5c0,10.2,2.6,14.5,8.2,14.5c5.6,0,8.2-4.3,8.2-14.6c0-10-2.6-14.3-8.2-14.3
				C866.1,933.1,863.5,937.4,863.5,947.5z"/>
			<path class="st0" d="M914.1,956c0,4.5,1.7,5.9,4.7,5.9c2.8,0,5.9-1.9,7.8-5v-34h13.7V972h-13.7v-5.8c-3.1,4.5-7.5,5.8-13,5.8
				c-8.9,0-13.2-5.6-13.2-14.3v-34.9h13.7V956z"/>
			<path class="st0" d="M989.3,912.8l-0.5,59.2h-13.7v-5.8c-2.5,3.6-5.8,5.8-11.9,5.8c-11.5,0-16.9-9.8-16.9-24.6
				c0-14.2,7-24.5,18.4-24.5c4.1,0,7.6,1.5,10.4,4.3v-14.4H989.3z M960.5,947.5c0,11.4,3,14.5,7.1,14.5c3.1,0,5.6-2,7.5-5.3v-19.9
				c-1.9-2.4-3.9-3.8-6.8-3.8C963.6,933,960.5,937.1,960.5,947.5z"/>
			<path class="st0" d="M999.3,922.8h12l1,6.9c4.1-4.6,8.4-6.9,14.3-6.9c7.9,0,12.7,5,12.7,13.8V972h-13.7v-31.3
				c0-5.7-1-7.6-4.4-7.6c-3,0-5.5,0.6-8.1,3.9V972h-13.7V922.8z"/>
			<path class="st0" d="M1070.9,962c4.2,0,8.2-1.5,11.8-3.8l5.5,7.5c-4.3,3.7-10.6,6.3-18.4,6.3c-15.8,0-23.9-10.2-23.9-24.5
				c0-13.6,8-24.6,22.5-24.6c13.2,0,21.6,8.9,21.6,23.7c0,1.6-0.1,3.6-0.3,4.9h-29.8C1060.7,959.1,1065,962,1070.9,962z
				 M1059.6,943.2h16.9c-0.1-6.7-2.4-11.1-8.2-11.1C1063.4,932.1,1060.2,935.6,1059.6,943.2z"/>
			<path class="st0" d="M1120.8,957.9c0-3-1.7-4.1-10.9-6.6c-8.4-2.3-14.2-5.9-14.2-14.1c0-8.2,7-14.3,20-14.3
				c8.2,0,14.1,2.3,18.7,5.6l-5.5,8.1c-3.8-2.3-8.3-3.9-12.8-3.9c-4.5,0-6.6,1.1-6.6,3.6c0,2.3,1.8,3.4,10.8,5.9
				c8.9,2.5,14.8,5.6,14.8,14.6c0,10.2-10.1,15.3-21.8,15.3c-8.9,0-15.8-2.8-20.5-6.9l6.9-7.7c3.6,2.8,8.2,4.9,13.5,4.9
				C1117.8,962.2,1120.8,960.8,1120.8,957.9z"/>
			<path class="st0" d="M1166,957.9c0-3-1.7-4.1-10.9-6.6c-8.4-2.3-14.2-5.9-14.2-14.1c0-8.2,7-14.3,20-14.3
				c8.2,0,14.1,2.3,18.7,5.6l-5.5,8.1c-3.8-2.3-8.3-3.9-12.8-3.9c-4.5,0-6.6,1.1-6.6,3.6c0,2.3,1.8,3.4,10.8,5.9
				c8.9,2.5,14.8,5.6,14.8,14.6c0,10.2-10.1,15.3-21.8,15.3c-8.9,0-15.8-2.8-20.5-6.9l6.9-7.7c3.6,2.8,8.2,4.9,13.5,4.9
				C1162.9,962.2,1166,960.8,1166,957.9z"/>
		</g>
	</g>
</g>
</svg>
