<?xml version="1.0" encoding="utf-8"?>
<!-- Generator: Adobe Illustrator 19.0.0, SVG Export Plug-In . SVG Version: 6.00 Build 0)  -->
<svg version="1.1" id="Layer_1" xmlns="http://www.w3.org/2000/svg" xmlns:xlink="http://www.w3.org/1999/xlink" x="0px" y="0px"
	 width="792px" height="378px" viewBox="508 423.5 792 378" style="enable-background:new 508 423.5 792 378;" xml:space="preserve"
	>
<style type="text/css">
	.st0{opacity:0.65;fill:#4EBFDD;enable-background:new    ;}
	.st1{opacity:0.8;fill:#F8A48C;}
	.st2{fill:#BBBDC0;}
	.st3{opacity:0.7;fill:#40BEB3;}
</style>
<g>
	<path class="st0" d="M1241.7,552.9c-4.9-4-12.2-3.2-16.1,1.8c-25.5,31.8-51.4,47.3-77,45.9c-41-2.2-70-46.8-70.3-47.4
		c-3.4-5.3-10.5-6.9-15.8-3.5c-1.4,0.9-2.5,2-3.3,3.2c-0.6,0.5-1.2,1.1-1.8,1.8c-25.5,31.8-51.4,47.3-77,45.9
		c-41-2.2-70-46.8-70.3-47.4c-3.4-5.3-10.5-6.9-15.8-3.5c-1.7,1.1-3,2.5-3.9,4.1c-0.3,0.3-0.5,0.6-0.8,0.9
		c-25.5,31.8-51.4,47.3-77,45.9c-41-2.2-70-46.8-70.3-47.4c-3.4-5.3-10.5-6.9-15.8-3.5c-1.4,0.9-2.5,1.9-3.3,3.2
		c-0.7,0.5-1.3,1.1-1.8,1.8c-25.5,31.8-51.4,47.3-77,45.9c-41-2.2-70-46.8-70.3-47.4c-3.4-5.3-10.5-6.9-15.8-3.5
		c-5.3,3.4-6.9,10.5-3.6,15.8c1.4,2.2,35.4,55,88.3,58c1.5,0.1,3.1,0.1,4.6,0.1c29.2,0,57.5-15.4,84.4-45.9
		c13.6,16.4,41.6,43.7,79.2,45.8c1.5,0.1,3.1,0.1,4.6,0.1c29.1,0,57.3-15.3,84.2-45.7c13.7,16.4,41.6,43.5,79,45.5
		c1.5,0.1,3.1,0.1,4.6,0.1c29.2,0,57.5-15.4,84.4-45.9c13.6,16.4,41.6,43.7,79.2,45.8c1.5,0.1,3.1,0.1,4.6,0.1
		c31.8,0,62.6-18.3,91.7-54.6C1247.5,564.1,1246.7,556.8,1241.7,552.9z"/>
	<path class="st1" d="M1243.7,659.4c-48.9,0-73.2-39.4-94.7-74.2c-21-34-39.1-63.3-75.2-63.3c-36.1,0-54.2,29.3-75.2,63.3
		c-21.5,34.8-45.8,74.2-94.7,74.2c-48.9,0-73.2-39.4-94.7-74.2c-21-34-39.1-63.3-75.2-63.3c-36.1,0-54.2,29.3-75.2,63.3
		c-21.5,34.8-45.8,74.2-94.7,74.2c-6.3,0-11.5-5.1-11.5-11.5c0-6.3,5.1-11.5,11.5-11.5c36.1,0,54.2-29.3,75.2-63.3
		c21.5-34.8,45.8-74.2,94.7-74.2s73.2,39.4,94.7,74.2c21,34,39.1,63.3,75.2,63.3c36.1,0,54.2-29.3,75.2-63.3
		c21.5-34.8,45.8-74.2,94.7-74.2s73.2,39.4,94.7,74.2c21,34,39.1,63.3,75.2,63.3c6.3,0,11.5,5.1,11.5,11.5
		C1255.2,654.2,1250.1,659.4,1243.7,659.4z"/>
	<path class="st2" d="M600.6,764.6c-0.3-0.4-0.6-0.6-1-0.6c-0.2,0-0.5,0.1-0.9,0.4c-1.4,0.9-3,1.4-4.6,1.4c-2.4,0-4.4-0.8-6.1-2.5
		c-1.6-1.6-2.4-3.6-2.4-5.9c0-1.5,0.4-2.8,1.1-4.1c0.7-1.2,1.7-2.3,2.9-3c1.5-0.9,3-1.3,4.5-1.3c1.6,0,3.1,0.4,4.5,1.3
		c0.4,0.3,0.7,0.4,0.9,0.4c0.3,0,0.7-0.2,1-0.6l2.3-2.9c0.2-0.3,0.4-0.6,0.4-0.8c0-0.3-0.1-0.6-0.4-0.8c-2.3-1.9-5.2-2.8-8.6-2.8
		c-4.1,0-7.5,1.4-10.4,4.3c-2.8,2.8-4.3,6.3-4.3,10.4c0,4.1,1.4,7.5,4.3,10.4c2.9,2.8,6.3,4.3,10.4,4.3c3,0,5.8-0.8,8.3-2.5
		c0.5-0.3,0.7-0.7,0.7-1.1c0-0.2-0.1-0.5-0.4-0.8L600.6,764.6z M626.7,743H623c-0.9,0-1.3,0.4-1.3,1.3v9.9h-8.6v-9.9
		c0-0.9-0.4-1.3-1.3-1.3h-3.7c-0.9,0-1.3,0.4-1.3,1.3v26.1c0,0.9,0.4,1.3,1.3,1.3h3.7c0.9,0,1.3-0.4,1.3-1.3v-10h8.6v10
		c0,0.9,0.4,1.3,1.3,1.3h3.7c0.9,0,1.3-0.4,1.3-1.3v-26.1C628,743.4,627.5,743,626.7,743z M638.4,743h-3.7c-0.9,0-1.3,0.4-1.3,1.3
		v26.1c0,0.9,0.4,1.3,1.3,1.3h3.7c0.9,0,1.3-0.4,1.3-1.3v-26.1C639.7,743.4,639.3,743,638.4,743z M665.2,764.6
		c-0.3-0.4-0.6-0.6-1-0.6c-0.2,0-0.5,0.1-0.9,0.4c-1.4,0.9-3,1.4-4.6,1.4c-2.4,0-4.4-0.8-6.1-2.5c-1.6-1.6-2.4-3.6-2.4-5.9
		c0-1.5,0.4-2.8,1.1-4.1c0.7-1.2,1.7-2.3,2.9-3c1.5-0.9,3-1.3,4.5-1.3c1.6,0,3.1,0.4,4.5,1.3c0.4,0.3,0.7,0.4,0.9,0.4
		c0.3,0,0.7-0.2,1-0.6l2.3-2.9c0.2-0.3,0.4-0.6,0.4-0.8c0-0.3-0.1-0.6-0.4-0.8c-2.3-1.9-5.2-2.8-8.6-2.8c-4.1,0-7.5,1.4-10.4,4.3
		c-2.8,2.8-4.3,6.3-4.3,10.4c0,4.1,1.4,7.5,4.3,10.4c2.9,2.8,6.3,4.3,10.4,4.3c3,0,5.8-0.8,8.3-2.5c0.5-0.3,0.7-0.7,0.7-1.1
		c0-0.2-0.1-0.5-0.4-0.8L665.2,764.6z M686.5,744c-0.3-0.7-0.7-1-1.5-1h-2.5c-0.7,0-1.2,0.3-1.5,1l-10.5,26.4
		c-0.1,0.2-0.1,0.4-0.1,0.5c0,0.5,0.3,0.7,1,0.7h4.2c0.7,0,1.2-0.3,1.5-1l1.7-4.2h9.9l1.8,4.2c0.3,0.7,0.8,1,1.5,1h4.2
		c0.6,0,1-0.2,1-0.7c0-0.1,0-0.3-0.1-0.5L686.5,744z M681,760.7l2.7-6.8l2.6,6.8H681z M725,763.8v-6.7c0-0.8-0.4-1.3-1.3-1.2h-10.2
		c-0.9,0-1.3,0.4-1.3,1.3v3.3c0,0.9,0.4,1.3,1.3,1.3h5.1v1.9c-1.1,1.4-2.9,2.1-5.4,2.1c-2.4,0-4.4-0.8-6-2.5
		c-1.7-1.7-2.5-3.6-2.5-5.9c0-2.3,0.8-4.3,2.5-6c1.6-1.6,3.6-2.5,5.9-2.5c1.6,0,3.2,0.5,4.6,1.4c0.4,0.2,0.7,0.4,0.9,0.4
		c0.3,0,0.7-0.2,1-0.6l2.3-2.9c0.2-0.3,0.4-0.6,0.4-0.8c0-0.3-0.2-0.6-0.5-0.9c-2.4-1.8-5.2-2.7-8.6-2.7c-4.1,0-7.5,1.4-10.4,4.3
		c-2.8,2.8-4.3,6.3-4.3,10.4c0,4.1,1.4,7.5,4.3,10.3c2.9,2.9,6.4,4.3,10.5,4.3c2.9,0,5.5-0.7,7.7-2.1c1.4-0.9,2.5-1.9,3.3-3.1
		c0.6-0.8,0.8-1.7,0.7-2.7L725,763.8z M743.5,742.7c-4.2,0-7.7,1.4-10.5,4.3c-2.8,2.9-4.3,6.3-4.3,10.4c0,4.1,1.4,7.5,4.3,10.4
		c2.9,2.8,6.3,4.3,10.4,4.3c4.1,0,7.5-1.4,10.4-4.3c2.9-2.9,4.3-6.3,4.3-10.4c0-4.1-1.4-7.5-4.3-10.4
		C750.8,744.1,747.4,742.7,743.5,742.7z M749.3,763.3c-1.6,1.6-3.6,2.5-5.9,2.5c-2.3,0-4.3-0.8-6-2.5c-1.7-1.7-2.5-3.6-2.5-5.9
		c0-2.3,0.8-4.3,2.5-6c1.7-1.6,3.6-2.5,5.9-2.5c2.4,0,4.4,0.8,6,2.4c1.7,1.7,2.5,3.7,2.5,6C751.8,759.6,750.9,761.6,749.3,763.3z
		 M783.2,743h-7.7c-0.9,0-1.3,0.4-1.3,1.3v26.1c0,0.9,0.4,1.3,1.3,1.3h3.7c0.9,0,1.3-0.4,1.3-1.3v-9.6h2.8c2.3,0,4.3-0.8,5.9-2.4
		c1.8-1.7,2.6-3.9,2.6-6.6c0-2.6-0.8-4.7-2.5-6.4C787.6,743.8,785.6,743,783.2,743z M785.1,753.4c-0.4,0.7-1,1.1-1.9,1.1h-2.8v-5.4
		h2.8c0.6,0,1.1,0.2,1.5,0.6c0.5,0.5,0.8,1.2,0.8,2.1C785.5,752.4,785.4,752.9,785.1,753.4z M809.5,742.7c-4.2,0-7.7,1.4-10.5,4.3
		c-2.8,2.9-4.3,6.3-4.3,10.4c0,4.1,1.4,7.5,4.3,10.4c2.9,2.8,6.3,4.3,10.4,4.3c4.1,0,7.5-1.4,10.4-4.3c2.9-2.9,4.3-6.3,4.3-10.4
		c0-4.1-1.4-7.5-4.3-10.4C816.8,744.1,813.4,742.7,809.5,742.7z M815.3,763.3c-1.6,1.6-3.6,2.5-5.9,2.5c-2.3,0-4.3-0.8-6-2.5
		c-1.7-1.7-2.5-3.6-2.5-5.9c0-2.3,0.8-4.3,2.5-6c1.7-1.6,3.6-2.5,5.9-2.5c2.4,0,4.4,0.8,6,2.4c1.7,1.7,2.5,3.7,2.5,6
		C817.8,759.6,816.9,761.6,815.3,763.3z M837.9,743h-8.3c-0.9,0-1.3,0.4-1.3,1.3v26.1c0,0.9,0.4,1.3,1.3,1.3h8.3
		c4,0,7.4-1.4,10.2-4.2c2.8-2.8,4.2-6.2,4.2-10.1s-1.4-7.3-4.2-10.1C845.2,744.4,841.8,743,837.9,743z M843.8,763.2
		c-1.5,1.5-3.5,2.3-5.9,2.3h-3.4v-16.3h3.6c2.3,0,4.2,0.7,5.7,2.2c1.5,1.5,2.3,3.5,2.3,5.9C846.1,759.7,845.3,761.6,843.8,763.2z
		 M877.3,764.6c-0.3-0.4-0.6-0.6-1-0.6c-0.2,0-0.5,0.1-0.9,0.4c-1.4,0.9-3,1.4-4.6,1.4c-2.4,0-4.4-0.8-6.1-2.5
		c-1.6-1.6-2.4-3.6-2.4-5.9c0-1.5,0.4-2.8,1.1-4.1c0.7-1.2,1.7-2.3,2.9-3c1.5-0.9,3-1.3,4.5-1.3c1.6,0,3.1,0.4,4.5,1.3
		c0.4,0.3,0.7,0.4,0.9,0.4c0.3,0,0.7-0.2,1-0.6l2.3-2.9c0.2-0.3,0.4-0.6,0.4-0.8c0-0.3-0.1-0.6-0.4-0.8c-2.3-1.9-5.2-2.8-8.6-2.8
		c-4.1,0-7.5,1.4-10.4,4.3c-2.8,2.8-4.3,6.3-4.3,10.4c0,4.1,1.4,7.5,4.3,10.4c2.9,2.8,6.3,4.3,10.4,4.3c3,0,5.8-0.8,8.3-2.5
		c0.5-0.3,0.7-0.7,0.7-1.1c0-0.2-0.1-0.5-0.4-0.8L877.3,764.6z M898.6,744c-0.3-0.7-0.7-1-1.5-1h-2.5c-0.7,0-1.2,0.3-1.5,1
		l-10.5,26.4c-0.1,0.2-0.1,0.4-0.1,0.5c0,0.5,0.3,0.7,1,0.7h4.2c0.7,0,1.2-0.3,1.5-1l1.7-4.2h9.9l1.8,4.2c0.3,0.7,0.8,1,1.5,1h4.2
		c0.6,0,1-0.2,1-0.7c0-0.1,0-0.3-0.1-0.5L898.6,744z M893.2,760.7l2.7-6.8l2.6,6.8H893.2z M921.6,754.3l-0.5-0.2
		c-2.1-0.8-3.2-1.8-3.2-2.9c0-0.5,0.1-1,0.4-1.4c0.4-0.6,1-0.9,1.6-0.9c0.7,0,1.2,0.3,1.8,1c0.2,0.3,0.5,0.5,0.8,0.5
		c0.2,0,0.4-0.1,0.7-0.2l3.4-1.6c0.5-0.2,0.8-0.6,0.8-1c0-0.6-0.4-1.3-1.3-2.2c-1.6-1.7-3.7-2.6-6.1-2.6c-2.5,0-4.5,0.8-6,2.3
		c-1.6,1.6-2.4,3.6-2.4,6.2c0,4.1,2.3,6.9,7,8.6c1.1,0.4,1.9,0.7,2.2,0.9c0.9,0.5,1.3,1.4,1.3,2.5c0,0.8-0.2,1.4-0.7,1.8
		c-0.4,0.4-1,0.7-1.6,0.7c-1.1,0-2.1-0.5-2.8-1.6c-0.3-0.4-0.6-0.6-0.9-0.6c-0.2,0-0.4,0.1-0.7,0.2l-2.8,1.2c-0.5,0.2-0.8,0.6-0.8,1
		c0,0.5,0.4,1.2,1.1,2.3c1.7,2.5,4,3.7,6.9,3.7h0.3c2.3,0,4.2-0.8,5.8-2.4c1.7-1.7,2.5-3.8,2.5-6.4
		C928.5,759,926.2,756.1,921.6,754.3z M949.6,743h-16.1c-0.9,0-1.3,0.4-1.3,1.3v3.7c0,0.9,0.4,1.3,1.3,1.3h4.9v21.2
		c0,0.9,0.4,1.3,1.3,1.3h3.7c0.9,0,1.3-0.4,1.3-1.3v-21.3h5c0.9,0,1.3-0.4,1.3-1.3v-3.6C950.9,743.4,950.5,743,949.6,743z
		 M975.2,750.3c1.4-0.9,2.9-1.3,4.4-1.3c1.5,0,3,0.4,4.5,1.3c0.4,0.3,0.7,0.4,0.9,0.4c0.3,0,0.6-0.2,0.9-0.6l2.2-2.9
		c0.2-0.3,0.3-0.6,0.4-0.8c0-0.3-0.1-0.6-0.4-0.8c-2.3-1.8-5.1-2.7-8.5-2.7c-4,0-7.4,1.4-10.2,4.2c-2.8,2.8-4.2,6.2-4.2,10.2
		c0,4,1.4,7.4,4.2,10.2c2.8,2.8,6.2,4.2,10.2,4.2c3,0,5.7-0.8,8.2-2.5c0.5-0.3,0.7-0.7,0.7-1c0-0.2-0.1-0.5-0.3-0.8l-2.2-2.9
		c-0.3-0.4-0.6-0.6-0.9-0.6c-0.2,0-0.5,0.1-0.9,0.4c-1.4,0.9-2.9,1.3-4.5,1.3c-2.3,0-4.3-0.8-6-2.5c-1.6-1.6-2.4-3.5-2.4-5.8
		c0-1.5,0.3-2.8,1-4C973,752.1,974,751.1,975.2,750.3z M1005.9,742.9c-4.1,0-7.5,1.4-10.3,4.2c-2.8,2.8-4.2,6.2-4.2,10.2
		c0,4,1.4,7.4,4.2,10.2c2.8,2.8,6.2,4.2,10.2,4.2c4,0,7.4-1.4,10.2-4.2c2.8-2.8,4.2-6.2,4.2-10.2c0-4-1.4-7.4-4.2-10.2
		C1013.2,744.3,1009.8,742.9,1005.9,742.9z M1011.7,763.2c-1.6,1.6-3.6,2.4-5.9,2.4s-4.2-0.8-5.9-2.4c-1.6-1.6-2.4-3.6-2.4-5.9
		c0-2.3,0.8-4.2,2.4-5.9c1.6-1.6,3.6-2.4,5.8-2.4c2.4,0,4.3,0.8,5.9,2.4c1.6,1.6,2.4,3.6,2.4,5.9
		C1014.1,759.6,1013.3,761.6,1011.7,763.2z M1038.4,742.9c-4.1,0-7.5,1.4-10.3,4.2c-2.8,2.8-4.2,6.2-4.2,10.2c0,4,1.4,7.4,4.2,10.2
		c2.8,2.8,6.2,4.2,10.2,4.2c4,0,7.4-1.4,10.2-4.2c2.8-2.8,4.2-6.2,4.2-10.2c0-4-1.4-7.4-4.2-10.2
		C1045.6,744.3,1042.3,742.9,1038.4,742.9z M1044.1,763.2c-1.6,1.6-3.6,2.4-5.9,2.4c-2.3,0-4.2-0.8-5.9-2.4
		c-1.6-1.6-2.4-3.6-2.4-5.9c0-2.3,0.8-4.2,2.4-5.9c1.6-1.6,3.6-2.4,5.8-2.4c2.4,0,4.3,0.8,5.9,2.4c1.6,1.6,2.4,3.6,2.4,5.9
		C1046.6,759.6,1045.7,761.6,1044.1,763.2z M1065.8,743.2h-7.6c-0.8,0-1.3,0.4-1.2,1.2v25.7c0,0.8,0.4,1.3,1.2,1.2h3.6
		c0.8,0,1.3-0.4,1.2-1.2v-9.5h2.8c2.3,0,4.2-0.8,5.8-2.3c1.7-1.7,2.6-3.9,2.6-6.5c0-2.5-0.8-4.6-2.4-6.3
		C1070.1,744,1068.1,743.2,1065.8,743.2z M1067.6,753.5c-0.4,0.7-1,1.1-1.9,1.1h-2.8v-5.3h2.8c0.6,0,1.1,0.2,1.5,0.6
		c0.5,0.5,0.8,1.2,0.8,2C1068,752.5,1067.9,753,1067.6,753.5z M1092.5,743.2h-13.4c-0.8,0-1.3,0.4-1.2,1.2v25.7
		c0,0.8,0.4,1.3,1.2,1.2h13.4c0.8,0,1.3-0.4,1.2-1.2v-3.6c0-0.8-0.4-1.3-1.2-1.2h-8.6v-5h8.6c0.8,0,1.3-0.4,1.2-1.2v-3.6
		c0-0.8-0.4-1.3-1.2-1.2h-8.6v-4.9h8.6c0.8,0,1.3-0.4,1.2-1.2v-3.6C1093.7,743.6,1093.3,743.2,1092.5,743.2z M1112.6,759.8
		c3-1.7,4.5-4.2,4.5-7.6c0-2.6-0.8-4.7-2.5-6.4c-1.7-1.7-3.7-2.5-6.2-2.5h-8c-0.8,0-1.3,0.4-1.2,1.2v25.7c0,0.8,0.4,1.3,1.2,1.2h3.6
		c0.8,0,1.3-0.4,1.2-1.2v-9.8h0.8l5.8,10.1c0.4,0.6,0.9,0.9,1.6,0.9h4.6c0.6,0,0.8-0.2,0.8-0.6c0-0.1-0.1-0.3-0.2-0.5L1112.6,759.8z
		 M1110.5,753.9c-0.5,0.7-1.2,1-2,1h-3.1v-5.5h3.1c0.7,0,1.3,0.2,1.8,0.7c0.5,0.5,0.8,1.2,0.8,2.1
		C1111.1,752.8,1110.9,753.4,1110.5,753.9z M1137.7,744.2c-0.3-0.7-0.7-1-1.4-1h-2.5c-0.7,0-1.2,0.3-1.4,1l-10.4,26
		c-0.1,0.2-0.1,0.4-0.1,0.5c0,0.5,0.3,0.7,0.9,0.7h4.2c0.7,0,1.2-0.3,1.4-1l1.7-4.1h9.7l1.8,4.1c0.3,0.7,0.8,1,1.5,1h4.1
		c0.6,0,0.9-0.2,0.9-0.7c0-0.1,0-0.3-0.1-0.5L1137.7,744.2z M1132.4,760.6l2.7-6.6l2.6,6.6H1132.4z M1165.4,743.2h-15.8
		c-0.8,0-1.3,0.4-1.2,1.2v3.6c0,0.8,0.4,1.3,1.2,1.2h4.8v20.9c0,0.8,0.4,1.3,1.2,1.2h3.6c0.8,0,1.3-0.4,1.2-1.2v-20.9h4.9
		c0.8,0,1.3-0.4,1.2-1.2v-3.6C1166.7,743.6,1166.2,743.2,1165.4,743.2z M1176.8,743.2h-3.6c-0.8,0-1.3,0.4-1.2,1.2v25.7
		c0,0.8,0.4,1.3,1.2,1.2h3.6c0.8,0,1.3-0.4,1.2-1.2v-25.7C1178,743.6,1177.6,743.2,1176.8,743.2z M1205.9,743.2h-4.2
		c-0.7,0-1.2,0.3-1.4,1l-5.5,16.4l-5.3-16.4c-0.2-0.7-0.7-1-1.4-1h-4.2c-0.6,0-1,0.2-1,0.7c0,0.1,0,0.3,0.1,0.5l9.1,26
		c0.2,0.7,0.7,1,1.4,1h2.5c0.7,0,1.2-0.3,1.4-1l9.3-26c0.1-0.2,0.1-0.4,0.1-0.5C1206.9,743.5,1206.5,743.2,1205.9,743.2z
		 M1225.9,749.3c0.8,0,1.3-0.4,1.2-1.2v-3.6c0-0.8-0.4-1.3-1.2-1.2h-13.4c-0.8,0-1.3,0.4-1.2,1.2v25.7c0,0.8,0.4,1.3,1.2,1.2h13.4
		c0.8,0,1.3-0.4,1.2-1.2v-3.6c0-0.8-0.4-1.3-1.2-1.2h-8.6v-5h8.6c0.8,0,1.3-0.4,1.2-1.2v-3.6c0-0.8-0.4-1.3-1.2-1.2h-8.6v-4.9
		H1225.9z"/>
	<path class="st3" d="M1073.9,705.2c-50.4,0-73.4-62.1-95.7-122.1C958.7,530.5,938.5,476,904,476c-34.5,0-54.7,54.5-74.2,107.1
		c-22.2,60-45.2,122.1-95.7,122.1s-73.4-62.1-95.7-122.1C618.9,530.5,598.8,476,564.3,476c-6.3,0-11.5-5.1-11.5-11.5
		s5.1-11.5,11.5-11.5c50.4,0,73.4,62.1,95.7,122.1c19.5,52.7,39.7,107.1,74.2,107.1c34.5,0,54.7-54.5,74.2-107.1
		c22.2-60,45.2-122.1,95.7-122.1c50.4,0,73.4,62.1,95.7,122.1c19.5,52.7,39.7,107.1,74.2,107.1s54.7-54.5,74.2-107.1
		c22.2-60,45.2-122.1,95.7-122.1c6.3,0,11.5,5.1,11.5,11.5s-5.1,11.5-11.5,11.5c-34.5,0-54.7,54.5-74.2,107.1
		C1147.3,643.2,1124.3,705.2,1073.9,705.2z"/>
</g>
</svg>
