<?xml version="1.0" encoding="utf-8"?>
<!-- Generator: Adobe Illustrator 18.1.1, SVG Export Plug-In . SVG Version: 6.00 Build 0)  -->
<!DOCTYPE svg PUBLIC "-//W3C//DTD SVG 1.1//EN" "http://www.w3.org/Graphics/SVG/1.1/DTD/svg11.dtd">
<svg version="1.1" id="Layer_1" xmlns="http://www.w3.org/2000/svg" xmlns:xlink="http://www.w3.org/1999/xlink" x="0px" y="0px"
	 viewBox="0 0 288 288" enable-background="new 0 0 288 288" xml:space="preserve">
<g>
	<g>
		<g>
			<g>
				
					<rect x="-7.5" y="118.9" transform="matrix(8.715841e-02 0.9962 -0.9962 8.715841e-02 149.8422 78.2495)" fill="#A6ADB3" width="79.4" height="4"/>
			</g>
			<path fill="#616B70" d="M49.7,133.6l-23.7,12.5c-2.5,1.3-4.1,4-4.1,6.9v26.7c0,2.9,1.6,5.6,4.2,6.9l23.6,12.1V133.6z"/>
			<g>
				<circle fill="#616B70" cx="28.9" cy="82.7" r="10.1"/>
			</g>
			<path fill="#7A8085" d="M39,83.6c0.3-3.7-1.4-7.1-4.2-9.1L22.2,90.3c1.6,1.4,3.6,2.3,5.8,2.5C33.6,93.3,38.5,89.2,39,83.6z"/>
			<path fill="#7A8085" d="M25.1,170.7v-24c-2,1.4-3.2,3.8-3.2,6.3v26.7c0,2.9,1.6,5.6,4.2,6.9l23.6,12.1V188l-20.4-10.5
				C26.7,176.2,25.1,173.6,25.1,170.7z"/>
		</g>
		<g>
			<g>
				
					<rect x="253.8" y="81.2" transform="matrix(0.9962 8.711849e-02 -8.711849e-02 0.9962 11.504 -21.8232)" fill="#A6ADB3" width="4" height="79.4"/>
			</g>
			<path fill="#7A8085" d="M238.3,133.6l23.7,12.5c2.5,1.3,4.1,4,4.1,6.9v26.7c0,2.9-1.6,5.6-4.2,6.9l-23.6,12.1V133.6z"/>
			<circle fill="#616B70" cx="259.1" cy="82.7" r="10.1"/>
			<path fill="#7A8085" d="M269.2,83.6c0.3-3.7-1.4-7.1-4.2-9.1l-12.6,15.8c1.6,1.4,3.6,2.3,5.8,2.5
				C263.8,93.3,268.7,89.2,269.2,83.6z"/>
			<path fill="#616B70" d="M261.9,146.1l-18.7-9.9v34.9c0,6,6.3,9.8,11.6,7.1l11.2-5.7V153C266.1,150.1,264.5,147.5,261.9,146.1z"/>
		</g>
	</g>
	<path fill="#F4DBAE" d="M144,279.3L144,279.3c-54.8,0-99.3-44.4-99.3-99.3v-60.8c0-51,41.4-92.4,92.4-92.4h13.7
		c51,0,92.4,41.4,92.4,92.4v60.8C243.3,234.9,198.8,279.3,144,279.3z"/>
	<path fill="#A6ADB3" d="M196.8,55.8v208.3c1.3-0.8,2.7-1.7,4-2.6V55.8H196.8z"/>
	<path fill="#A6ADB3" d="M87.2,55.8v205.7c1.3,0.9,2.6,1.8,4,2.6V55.8H87.2z"/>
	<g>
		<circle fill="#6E8B94" cx="89.2" cy="165.4" r="12.7"/>
		<circle fill="#6E8B94" cx="198.8" cy="165.4" r="12.7"/>
	</g>
	<path fill="#FBBF96" d="M144,234.4c15.5,0,28.4-11.2,30.9-26c0.5-2.8-1.6-5.4-4.5-5.4h-52.8c-2.8,0-5,2.6-4.5,5.4
		C115.6,223.2,128.5,234.4,144,234.4z"/>
	<path fill="#8B734D" d="M246.5,91.4c-5.4-13.6-14.7-28.9-8.3-43.8c0.4-1,0.3-2.1-0.7-2.7c-1.4-0.8-2.6-1.7-3.7-2.8
		c1.5-2.1,3-4.2,4.6-6.3c0.9-1.2-0.3-3-1.7-3c-5.1,0.2-10.1-0.4-15-1.6c2.2-3,4.4-6,6.6-9c0.7-1,0-2.7-1.2-2.9
		c-14.8-2.1-29.5-4.3-44.3-6.4c-14.1-2-28.3-4.3-42.5-4.5C115,8,90.8,15.7,70.8,31c-1.8-1.5-3.1-3.6-4.2-5.5
		c-0.8-1.3-3.4-1.3-3.6,0.5c-0.3,2.4-0.6,4.7-1,7.1c-1.7-0.3-3.4-0.6-5-0.9c-1.4-0.2-3,0.9-2.4,2.4c1,2.9,1.9,5.8,2.9,8.7
		c-5.3,2-8.2,7.6-10.3,12.8c-3.7,9.1-6.1,18.6-7.7,28.2c-1.5,9.4-2.2,18.9-2.4,28.5c-0.1,4.8-0.1,9.6,0.1,14.4
		c0.1,4.2,0.2,8.6,1.7,12.6c0.9,2.3,2.3,5.5,5.1,5.3c2.3-0.1,4.5-1.6,6.2-3.1c4.4-4.1,6.7-10.2,8.8-15.6c3.5-9.3,6.3-18.5,8.6-28.2
		c2.8-12.1,5.6-24.5,6.8-36.9c1.6,2.2,3.4,4.3,5.8,5.9c4.4,3.1,9.4,5.2,13.9,7.9c1.3,0.8,3-0.2,3-1.7c-0.1-5.7-1.4-11.1-3.1-16.4
		c2.1,1.2,4.2,2.5,6.3,3.7c2.2,1.3,5.1,3.9,7.9,3.3c1.9-0.4,2.7-1.7,3.3-3.4c0.8-2.3,1.1-4.9,1.5-7.4C118.2,60,124.3,66.3,131,72
		c1.2,1,2.8,0.6,3.3-0.9c0.9-2.2,1.9-4.3,3.1-6.4c3.7,1.6,7.6,3,11.4,4.3c2.3,0.8,4.6,1.6,6.9,2.5c2,0.8,4.7,2.5,6.8,2.7
		c4.7,0.6,3.1-6.8,3.2-11c7.5,4,14.7,8.5,21.6,13.4c0.8,0.6,2.3,0.2,2.7-0.7c1.6-3.4,2.6-6.8,2.8-10.4c3,1.9,6,3.8,8.9,5.7
		c3.6,2.3,7.3,5.4,11.4,6.7c3.4,1.1,7.9-0.2,9.5-3.2c7.9,7.4,11,18.6,11.9,29.2c0.6,7,0.4,14,0.6,21c0.1,4.8-0.4,10.2,2.8,14.1
		c1.6,2,4.9,4.8,7.7,3.1c1.6-1,2-3.5,2.6-5.2c1.1-3.2,1.9-6.6,2.5-10C252.6,114.9,251.1,102.8,246.5,91.4z"/>
	<path fill="#7F7664" d="M237.5,137h-64c-7.6,0-13.8,6-14.1,13.5c-10.3-2.9-20.6-2.9-30.9,0c-0.4-7.5-6.6-13.5-14.1-13.5h-64
		c-2.7,0-4.8,2.2-4.8,4.8v0.2c0,1.9,1.1,3.6,2.9,4.4c1,0.5,1.8,2.3,2.1,5V171c0,11.3,9.2,20.4,20.4,20.4h35.1
		c12.3,0,22.4-10,22.4-22.4v-14.2c10.2-3.1,20.6-3.1,30.8,0V169c0,12.3,10,22.4,22.4,22.4h35.1c11.3,0,20.4-9.2,20.4-20.4v-19.5
		c0.3-2.7,1.1-4.5,2.1-5c1.8-0.8,2.9-2.5,2.9-4.4v-0.2C242.3,139.2,240.2,137,237.5,137z M124.5,169c0,10.1-8.2,18.3-18.3,18.3H71.1
		c-9,0-16.3-7.3-16.3-16.3v-13.5c0.1-0.6,0.3-3.3,0-6.2v-0.1h0c0,0,0,0,0,0c-0.5-4.4-2-7.2-4.5-8.4c-0.3-0.1-0.5-0.4-0.5-0.7v-0.2
		c0-0.4,0.3-0.7,0.7-0.7h64c5.5,0,10,4.5,10,10V169z M238.2,142.1c0,0.3-0.3,0.6-0.5,0.7c-2.5,1.2-4,4-4.5,8.4c0,0,0,0,0,0l0,0.1
		c-0.3,2.9-0.1,5.6,0,6.2V171c0,9-7.3,16.3-16.3,16.3h-35.1c-10.1,0-18.3-8.2-18.3-18.3v-17.8c0-5.5,4.5-10,10-10h64
		c0.4,0,0.7,0.3,0.7,0.7V142.1z"/>
	<path fill="#AAA296" d="M216.9,187.3h-35.1c-8.2,0-15.2-5.5-17.5-13H160c2.4,9.8,11.2,17.1,21.7,17.1h35.1
		c10.1,0,18.5-7.4,20.1-17.1h-4.2C231.3,181.7,224.7,187.3,216.9,187.3z"/>
	<path fill="#AAA296" d="M71.1,191.4h35.1c10.5,0,19.3-7.3,21.7-17.1h-4.3c-2.3,7.5-9.2,13-17.5,13H71.1c-7.8,0-14.4-5.6-16-13H51
		C52.6,184,61,191.4,71.1,191.4z"/>
	<g>
		<g>
			<path fill="#765D30" d="M63.4,133.6c-0.5,0-1-0.2-1.3-0.6c-0.5-0.7-0.4-1.7,0.3-2.2c13.3-9.9,28.8-11.1,47.3-3.9
				c0.8,0.3,1.2,1.2,0.9,2.1c-0.3,0.8-1.2,1.2-2.1,0.9c-17.4-6.8-31.9-5.7-44.3,3.5C64,133.5,63.7,133.6,63.4,133.6z"/>
		</g>
		<g>
			<path fill="#765D30" d="M224.6,133.6c-0.3,0-0.7-0.1-0.9-0.3c-12.3-9.2-26.8-10.3-44.3-3.5c-0.8,0.3-1.7-0.1-2.1-0.9
				c-0.3-0.8,0.1-1.7,0.9-2.1c18.6-7.2,34-6,47.3,3.9c0.7,0.5,0.9,1.5,0.3,2.2C225.6,133.4,225.1,133.6,224.6,133.6z"/>
		</g>
	</g>
</g>
</svg>
