<?xml version="1.0" encoding="utf-8"?>
<!-- Generator: Adobe Illustrator 18.1.1, SVG Export Plug-In . SVG Version: 6.00 Build 0)  -->
<!DOCTYPE svg PUBLIC "-//W3C//DTD SVG 1.1//EN" "http://www.w3.org/Graphics/SVG/1.1/DTD/svg11.dtd">
<svg version="1.1" id="Layer_1" xmlns="http://www.w3.org/2000/svg" xmlns:xlink="http://www.w3.org/1999/xlink" x="0px" y="0px"
	 viewBox="0 0 288 288" enable-background="new 0 0 288 288" xml:space="preserve">
<g>
	<path fill="#744F1F" d="M49.1,209.6c-1.2,3.7-4.1,12.3-7.6,16.5c-0.6,0.8,0,1.9,1,1.8c1.9-0.1,4.6-0.8,7.4-3
		c0.6-0.5,1.6-0.2,1.8,0.6c0.4,1.5,0.9,3.9,0.7,5.9c-0.1,0.9,1,1.5,1.7,1l11.5-7.8c0.6-0.4,0.7-1.3,0.1-1.7l-14.8-13.8
		C50.3,208.5,49.3,208.8,49.1,209.6z"/>
	<path fill="#744F1F" d="M241.3,209.6c1.2,3.7,4.1,12.3,7.6,16.5c0.6,0.8,0,1.9-1,1.8c-1.9-0.1-4.6-0.8-7.4-3
		c-0.6-0.5-1.6-0.2-1.8,0.6c-0.4,1.5-0.9,3.9-0.7,5.9c0.1,0.9-1,1.5-1.7,1l-11.5-7.8c-0.6-0.4-0.7-1.3-0.1-1.7l14.8-13.8
		C240.1,208.5,241,208.8,241.3,209.6z"/>
	<path fill="#F4DBAE" d="M65,218.4h-6.9c-16.1,0-29.1-13-29.1-29.1v0c0-16.1,13-29.1,29.1-29.1H65V218.4z"/>
	<path opacity="0.4" fill="#C1B39A" d="M65,218.4v-58.2H48.7c-2.2,0-6.2,27-6.2,27c0,10.9,1.8,21.3,5,31.1c0.4,0,0.8,0,1.2,0H65z"/>
	<path fill="#F4DBAE" d="M226.2,218.4h6.9c16.1,0,29.1-13,29.1-29.1v0c0-16.1-13-29.1-29.1-29.1h-6.9V218.4z"/>
	<path opacity="0.4" fill="#C1B39A" d="M226.2,218.4v-58.2h16.3c2.2,0,6.2,27,6.2,27c0,10.9-1.8,21.3-5,31.1c-0.4,0-0.8,0-1.2,0
		H226.2z"/>
	<path fill="#F4DBAE" d="M145.6,281.9L145.6,281.9c-54.8,0-99.3-44.4-99.3-99.3v-60.8c0-51,41.4-92.4,92.4-92.4h13.7
		c51,0,92.4,41.4,92.4,92.4v60.8C244.9,237.5,200.4,281.9,145.6,281.9z"/>
	<path fill="#FBBF96" d="M145.6,251.7c15.5,0,28.4-11.2,30.9-26c0.5-2.8-1.6-5.4-4.5-5.4h-52.8c-2.8,0-5,2.6-4.5,5.4
		C117.3,240.4,130.1,251.7,145.6,251.7z"/>
	<path fill="#93989C" d="M82.1,179.9L54.5,222c6.5,15.1,16.6,28.2,29.3,38.3l23.7-80.4H82.1z"/>
	<path fill="#93989C" d="M209.1,179.9l27.6,42.1c-6.5,15.1-16.6,28.2-29.3,38.3l-23.7-80.4H209.1z"/>
	<path fill="#A6ADB3" d="M218.1,241.9c6.7-6.6,12.4-14.1,17-22.4l-26-39.6h-19.4l17.5,59.3C208.7,243.9,214.6,245.4,218.1,241.9z"/>
	<path fill="#A6ADB3" d="M89.9,179.9L68.3,213c-3.3,5-3.6,11.4-0.7,16.6c4.9,8.8,11.1,16.7,18.3,23.6l21.6-73.2H89.9z"/>
	<path fill="#93989C" d="M145.6,163.2l-94.5-14v9.8c0,22.5,16.5,41.6,38.7,44.9l55.8,8.3l55.8-8.3c22.2-3.3,38.7-22.4,38.7-44.9
		v-9.8L145.6,163.2z"/>
	<path fill="#A6ADB3" d="M240.2,149.2l-94.5,14l-94.5-14v9.8c0,5.7,1.1,11.2,3,16.3c7.5,9,18.3,15.4,30.7,17.2l60.8,9l60.8-9
		c12.4-1.8,23.1-8.2,30.7-17.2c1.9-5.1,3-10.5,3-16.3V149.2z"/>
	<circle fill="#744F1F" cx="91.6" cy="183.9" r="12.7"/>
	<path fill="#744F1F" d="M258.2,146.2c-3.1-2.3-2.7-7.1-2.8-10.5c0-4.3,0.1-8.5,0.2-12.8c0.2-8.7,0.3-17.5-0.8-26.1
		c-1-7.9-3.2-15.4-6.1-22.8c-1.3-3.2-3.8-7-4.4-10.3c-0.3-1.7-0.5-0.9,1-1.6c0.8-0.4,2-0.6,2.9-0.8c2.4-0.7,4.8-1.4,7.2-2.1
		c2-0.6,1.8-3.2,0-3.8c-13.3-4.7-26.6-9.5-39.3-15.6c-11.7-5.6-22.4-13.5-34.8-17.8c-12.5-4.4-26-5-39.1-4.8
		c-12.8,0.2-25.7,1.5-38,5c-10.3,2.9-25,7.5-30.9,17.6c-1.1-1-2.3-1.9-3.6-2.7c-1.2-0.7-3.1,0.2-3,1.7c0.2,1.8,1.6,5.9-1.4,4.3
		c-1.6-0.8-3.3,0.5-2.9,2.2c0.5,2.6,0.3,5.3,1.2,7.7c-4,3.4-7.1,8.2-9.8,12.6c-4.5,7.1-8.5,14.6-12,22.3c-2.7,6-5.6,12.3-6.8,18.8
		c0,0.2-0.1,0.3-0.1,0.5c-2.8,3.8-5.7,7.6-8.5,10.5c-1.2,1.2,0,3.2,1.6,2.8c1.9-0.5,4-1,6-1.6c0,5.8,0.5,11.7,1,17.3
		c1.1,12.3,3.3,24.6,7.2,36.4c0.5,1.5,2.2,1.8,3.3,0.9c13.9-11.6,27.4-27.7,32.1-45.5c2.6-9.8,3-20.2,3.7-30.3
		c0.2-3.2,0.3-6.4,0.5-9.7c2.8,15.5,7.6,30.6,15.8,44.1c10.5,17.4,26.4,31.7,46,38c1.4,0.4,2.4-0.7,2.5-1.9c0.9-7.3,1.2-14.6,0.9-22
		c6.7,5.6,14,10.5,21.7,14.6c1.5,0.8,3.4-0.5,2.9-2.2c-1-3.9-2-7.7-3-11.6c9.9,8,20.4,15.1,31.6,21.2c1.2,0.7,3.1-0.1,3-1.7
		c-0.5-6.6-0.9-13.1-1.4-19.7c5.2,6.1,11.2,11.5,18,16c1.3,0.9,2.9-0.3,3-1.7c0.2-7.8,0.2-15.5,0-23.3c3.6,6.2,7.3,12.4,11.3,18.4
		c4.2,6.4,9,12.6,16.1,16c1.4,0.7,3.6-0.5,2.9-2.2c-2.2-5.9-2.6-11.9-2.7-18.1c2.5-0.6,5.1-1.2,7.6-1.7
		C259.5,149.4,259.4,147.1,258.2,146.2z"/>
	<circle fill="#744F1F" cx="199.6" cy="183.9" r="12.7"/>
	<g>
		
			<rect x="236.2" y="19.4" transform="matrix(0.9063 0.4226 -0.4226 0.9063 39.0876 -97.0303)" fill="#A6ADB3" width="4.4" height="40.5"/>
		<path fill="#7A8085" d="M224.2,88.2l-13.8-6.5l11.4-24.4c1.8-3.8,6.3-5.5,10.1-3.7l0,0c3.8,1.8,5.5,6.3,3.7,10.1L224.2,88.2z"/>
	</g>
	<g>
		<circle fill="#616B70" cx="250" cy="15.9" r="10.1"/>
		<path fill="#7A8085" d="M260.1,16.8c0.3-3.7-1.4-7.1-4.2-9.1l-12.6,15.8c1.6,1.4,3.6,2.3,5.8,2.5
			C254.7,26.5,259.6,22.3,260.1,16.8z"/>
	</g>
	<path fill="#744F1F" d="M196.9,74.4c0,0,10.3-1.2,20.2,6S240,90.7,240,90.7l-29.7,6L196.9,74.4z"/>
	<g>
		
			<rect x="46.7" y="19.4" transform="matrix(-0.9063 0.4226 -0.4226 -0.9063 109.9737 54.902)" fill="#A6ADB3" width="4.4" height="40.5"/>
		<path fill="#7A8085" d="M63.1,88.2L77,81.8L65.6,57.4c-1.8-3.8-6.3-5.5-10.1-3.7l0,0c-3.8,1.8-5.5,6.3-3.7,10.1L63.1,88.2z"/>
	</g>
	<path fill="#744F1F" d="M54.9,90.6c0,0,2.4-10.7,13.5-9.9s18.3,3.5,20.6,0l-1.6,7.6l-14.4-2.6L54.9,90.6z"/>
	<g>
		<circle fill="#616B70" cx="36.9" cy="15.9" r="10.1"/>
		<path fill="#7A8085" d="M47,16.8c0.3-3.7-1.4-7.1-4.2-9.1L30.2,23.4c1.6,1.4,3.6,2.3,5.8,2.5C41.6,26.5,46.5,22.3,47,16.8z"/>
	</g>
</g>
</svg>
