<?xml version="1.0" encoding="utf-8"?>
<!-- Generator: Adobe Illustrator 18.1.1, SVG Export Plug-In . SVG Version: 6.00 Build 0)  -->
<!DOCTYPE svg PUBLIC "-//W3C//DTD SVG 1.1//EN" "http://www.w3.org/Graphics/SVG/1.1/DTD/svg11.dtd">
<svg version="1.1" xmlns="http://www.w3.org/2000/svg" xmlns:xlink="http://www.w3.org/1999/xlink" x="0px" y="0px"
	 viewBox="0 0 200 145" enable-background="new 0 0 200 145" xml:space="preserve">
<g id="Layer_1">
</g>
<g id="Layer_2" display="none">
</g>
<g id="Layer_3">
	<g>
		<path fill="#7C8185" d="M197.9,93c0-12.2-9.9-22-22-22V115C188,115,197.9,105.2,197.9,93z"/>
		<path fill="#7C8185" d="M2.6,88.1H2.1V93c0,12.2,9.9,22,22,22V70.9C13.6,70.9,4.9,78.3,2.6,88.1z"/>
		<rect x="194" y="88.1" fill="#7C8185" width="3.9" height="4.9"/>
		<path fill="#A5ACB2" d="M197.9,88.1c0-12.2-9.9-22-22-22v44.1C188,110.2,197.9,100.3,197.9,88.1z"/>
		<path fill="#495054" d="M170.4,142.5H29.2c-3.9,0-7-3.1-7-7V57.7c0-3.9,3.1-7,7-7h141.2c3.9,0,7,3.1,7,7v77.7
			C177.5,139.4,174.3,142.5,170.4,142.5z"/>
		<g>
			<path fill="#A5ACB2" d="M81.3,47.3c-1.9,0-3.7-1.3-4.2-3.2L67.3,8c-0.6-2.3,0.8-4.8,3.1-5.4c2.3-0.6,4.8,0.8,5.4,3.1l9.8,36
				c0.6,2.3-0.8,4.8-3.1,5.4C82,47.3,81.6,47.3,81.3,47.3z"/>
		</g>
		<g>
			<path fill="#A5ACB2" d="M117.1,47.3c-0.4,0-0.8,0-1.2-0.2c-2.3-0.6-3.7-3-3.1-5.4l9.8-36c0.6-2.3,3-3.7,5.4-3.1
				c2.3,0.6,3.7,3,3.1,5.4l-9.8,36C120.8,46,119,47.3,117.1,47.3z"/>
		</g>
		<path fill="#A5ACB2" d="M2.1,88.1c0,12.2,9.9,22,22,22V66.1C12,66.1,2.1,75.9,2.1,88.1z"/>
		<path fill="#616B70" d="M170.4,134.7H29.2c-3.9,0-7-3.1-7-7V50c0-3.9,3.1-7,7-7h141.2c3.9,0,7,3.1,7,7v77.7
			C177.5,131.6,174.3,134.7,170.4,134.7z"/>
		<path fill="#A5ACB2" d="M99.2,117.1c9,0,16.5-6.8,17.6-15.5c0.1-1.2-0.7-2.2-1.9-2.2H83.5c-1.2,0-2.1,1.1-1.9,2.2
			C82.7,110.3,90.1,117.1,99.2,117.1z"/>
		<path opacity="0.35" fill="#A5ACB2" d="M57.6,134.7H29.2c-3.9,0-7-3.1-7-7V50c0-3.9,3.1-7,7-7h28.4V134.7z"/>
		<path opacity="0.35" fill="#A5ACB2" d="M170.8,134.7h-28.4V42.9h28.4c3.9,0,7,3.1,7,7v77.7C177.8,131.6,174.7,134.7,170.8,134.7z"
			/>
		<path fill="#7C8185" d="M81.6,101.6c0.2,1.8,0.7,3.6,1.5,5.2h32.2c0.7-1.6,1.3-3.3,1.5-5.2c0.2-1.2-0.8-2.2-1.9-2.2H83.5
			C82.3,99.4,81.4,100.4,81.6,101.6z"/>
		<path fill="#A5ACB2" d="M51.7,65.4c5.4,0,10,3.8,11.1,8.9c0.3,1.4,1.6,2.4,3.1,2.4h0c2,0,3.6-1.9,3.1-3.8C67.3,65,60.2,59,51.7,59
			S36.2,65,34.4,72.9c-0.4,2,1.1,3.8,3.1,3.8h0c1.5,0,2.8-1,3.1-2.4C41.8,69.2,46.3,65.4,51.7,65.4z"/>
		<path fill="#A5ACB2" d="M147.9,65.4c5.4,0,10,3.8,11.1,8.9c0.3,1.4,1.6,2.4,3.1,2.4h0c2,0,3.6-1.9,3.1-3.8
			C163.5,65,156.4,59,147.9,59c-8.5,0-15.6,5.9-17.3,13.9c-0.4,2,1.1,3.8,3.1,3.8h0c1.5,0,2.8-1,3.1-2.4
			C138,69.2,142.5,65.4,147.9,65.4z"/>
	</g>
</g>
</svg>
