<?xml version="1.0" encoding="utf-8"?>
  <svg version="1.1" id="Layer_1" xmlns="http://www.w3.org/2000/svg" xmlns:xlink="http://www.w3.org/1999/xlink" x="0px" y="0px"
	 viewBox="0 0 617 100" style="enable-background:new 0 0 617 100;" xml:space="preserve">
  <style type="text/css">
  	.st0{fill:#616B70;}
  	.st1{fill:#6E777C;}
  	.st2{fill:#A5ABB2;}
  	.st3{fill:#31383C;}
  	.st4{fill:#7C8084;}
  	.st5{fill:#495054;}
  	.st6{fill:url(#SVGID_1_);}
  	.st7{fill:url(#SVGID_2_);}
  	.st8{fill:url(#SVGID_3_);}
  	.st9{fill:url(#SVGID_4_);}
  	.st10{fill:url(#SVGID_5_);}
  	.st11{fill:url(#SVGID_6_);}
  	.st12{fill:url(#SVGID_7_);}
  </style>
  <g>
  	<g>
  		<rect x="39.6" y="28.9" class="st0" width="60.3" height="65.6"/>
  		<path class="st1" d="M39.6,94.4H19.4c-2.8,0-5-2.2-5-5V33.9c0-2.8,2.2-5,5-5h20.3V94.4z"/>
  		<path class="st1" d="M100,94.4h20.3c2.8,0,5-2.2,5-5V33.9c0-2.8-2.2-5-5-5H100V94.4z"/>
  		<g>
  			<g>
  				<circle class="st2" cx="35.4" cy="53" r="12.7"/>
  				<circle class="st3" cx="35.4" cy="53" r="8.1"/>
  			</g>
  			<g>
  				<circle class="st2" cx="104.2" cy="53" r="12.7"/>
  				<circle class="st3" cx="104.2" cy="53" r="8.1"/>
  			</g>
  		</g>
  		<path class="st4" d="M57.3,72.9c0.2,1.3,0.5,2.5,1.1,3.7h23c0.5-1.2,0.9-2.4,1.1-3.7c0.1-0.8-0.5-1.6-1.4-1.6H58.6
  			C57.8,71.3,57.1,72,57.3,72.9z"/>
  		<path class="st2" d="M0,61.2c0,8.2,6.3,15,14.4,15.7V45.5C6.3,46.2,0,52.9,0,61.2z"/>
  		<path class="st2" d="M69.8,83.9c5.1,0,9.5-3,11.5-7.4h-23C60.3,80.9,64.7,83.9,69.8,83.9z"/>
  		<path class="st4" d="M0,61.2v3.5c0,8.2,6.3,15,14.4,15.7v-3.5C6.3,76.1,0,69.4,0,61.2z"/>
  		<path class="st2" d="M139.6,61.2c0,8.2-6.3,15-14.4,15.7V45.5C133.3,46.2,139.6,52.9,139.6,61.2z"/>
  		<path class="st4" d="M139.6,61.2v3.5c0,8.2-6.3,15-14.4,15.7v-3.5C133.3,76.1,139.6,69.4,139.6,61.2z"/>
  		<path class="st5" d="M120.2,94.4H100H39.6H19.4c-2.8,0-5-2.2-5-5V95c0,2.8,2.2,5,5,5h100.9c2.8,0,5-2.2,5-5v-5.6
  			C125.3,92.2,123,94.4,120.2,94.4z"/>
  		<path class="st2" d="M59.6,28.1l-7-25.7c-0.5-1.7-2.2-2.7-3.8-2.2c-1.7,0.5-2.7,2.2-2.2,3.8l6.8,24.9h6.4
  			C59.7,28.6,59.7,28.3,59.6,28.1z"/>
  		<path class="st2" d="M92.1,4c0.5-1.7-0.5-3.4-2.2-3.8c-1.7-0.5-3.4,0.5-3.8,2.2l-7,25.7C79,28.3,79,28.6,79,28.9h6.4L92.1,4z"/>
  	</g>
  	<g>
  		<linearGradient id="SVGID_1_" gradientUnits="userSpaceOnUse" x1="142.7773" y1="64.6371" x2="626.9304" y2="64.6371">
  			<stop  offset="0" style="stop-color:#28AEDE"/>
  			<stop  offset="1" style="stop-color:#23D6A3"/>
  		</linearGradient>
  		<path class="st6" d="M208.7,54.3c0-15.3-10.4-23.9-28.4-23.9h-30.6v68.4H167V79.6h13.2h0.5l10.2,19.3h19.7l-14.4-22.6
  			C204.3,72.3,208.7,64.7,208.7,54.3z M180.2,65.9H167V44.1h13.2c7.5,0,11.9,3.6,11.9,10.8C192.1,62.1,187.7,65.9,180.2,65.9z"/>
  		<linearGradient id="SVGID_2_" gradientUnits="userSpaceOnUse" x1="142.7773" y1="64.7351" x2="626.9304" y2="64.7351">
  			<stop  offset="0" style="stop-color:#28AEDE"/>
  			<stop  offset="1" style="stop-color:#23D6A3"/>
  		</linearGradient>
  		<path class="st7" d="M252.9,29.8c-21.1,0-37,14.8-37,34.7c0,20,15.8,35.1,37,35.1c21.2,0,37.1-15.2,37.1-35.1
  			C289.9,44.7,274.1,29.8,252.9,29.8z M253.1,85.1c-10.5,0-19.4-8.9-19.4-20.4s8.8-20.2,19.4-20.2s19,8.7,19,20.2
  			S263.6,85.1,253.1,85.1z"/>
  		<linearGradient id="SVGID_3_" gradientUnits="userSpaceOnUse" x1="142.7773" y1="64.6371" x2="626.9304" y2="64.6371">
  			<stop  offset="0" style="stop-color:#28AEDE"/>
  			<stop  offset="1" style="stop-color:#23D6A3"/>
  		</linearGradient>
  		<path class="st8" d="M344.9,62.6c7.2-2.1,11.7-7.8,11.7-15.1c0-10.5-9.8-17.1-25.1-17.1h-32.4v68.4h33.5c16.1,0,26.3-7.3,26.3-19
  			C358.9,71,353.5,64.2,344.9,62.6z M316.4,43.7h14.1c5.1,0,8.3,2.5,8.3,6.9s-3.2,7.1-8.3,7.1h-14.1V43.7z M330.5,85.5h-14.1V70.3
  			h14.1c6.5,0,10.5,2.8,10.5,7.4C340.9,82.6,336.9,85.5,330.5,85.5z"/>
  		<linearGradient id="SVGID_4_" gradientUnits="userSpaceOnUse" x1="142.7773" y1="64.7351" x2="626.9304" y2="64.7351">
  			<stop  offset="0" style="stop-color:#28AEDE"/>
  			<stop  offset="1" style="stop-color:#23D6A3"/>
  		</linearGradient>
  		<path class="st9" d="M401.5,29.8c-21.1,0-37,14.8-37,34.7c0,20,15.8,35.1,37,35.1c21.2,0,37.1-15.2,37.1-35.1
  			C438.5,44.7,422.7,29.8,401.5,29.8z M401.7,85.1c-10.5,0-19.4-8.9-19.4-20.4s8.8-20.2,19.4-20.2c10.6,0,19,8.7,19,20.2
  			S412.2,85.1,401.7,85.1z"/>
  		<linearGradient id="SVGID_5_" gradientUnits="userSpaceOnUse" x1="142.7773" y1="64.6371" x2="626.9304" y2="64.6371">
  			<stop  offset="0" style="stop-color:#28AEDE"/>
  			<stop  offset="1" style="stop-color:#23D6A3"/>
  		</linearGradient>
  		<rect x="447.7" y="30.4" class="st10" width="17.4" height="68.4"/>
  		<linearGradient id="SVGID_6_" gradientUnits="userSpaceOnUse" x1="142.7773" y1="64.539" x2="626.9304" y2="64.539">
  			<stop  offset="0" style="stop-color:#28AEDE"/>
  			<stop  offset="1" style="stop-color:#23D6A3"/>
  		</linearGradient>
  		<path class="st11" d="M496.1,48.7c0-3.3,3-5,7.5-5c5.6,0,14.7,2.9,21.9,7.1l6.6-13.6c-7-4.6-17.1-7.6-27-7.6
  			c-16.4,0-27.3,8-27.3,20.6c0,24.2,36.2,17,36.2,29.1c0,3.9-3.4,6-8.9,6c-7.1,0-17.7-4.1-24.7-10.3l-6.7,13.4
  			c8.1,6.6,19.8,10.9,31.3,10.9c15.3,0,27.4-7.2,27.4-20.9C532.3,53.8,496.1,60.5,496.1,48.7z"/>
  		<linearGradient id="SVGID_7_" gradientUnits="userSpaceOnUse" x1="142.7773" y1="64.5881" x2="626.9304" y2="64.5881">
  			<stop  offset="0" style="stop-color:#28AEDE"/>
  			<stop  offset="1" style="stop-color:#23D6A3"/>
  		</linearGradient>
  		<polygon class="st12" points="579.4,71.1 560.8,30.3 541.8,30.3 541.8,98.9 557.3,98.9 557.3,54.4 573.7,92 585.1,92 601.5,54.4
  			601.6,98.9 616.9,98.9 616.9,30.3 598,30.3 		"/>
  	</g>
  </g>
</svg>
