<?xml version="1.0" encoding="utf-8"?>
<!-- Generator: Adobe Illustrator 18.1.1, SVG Export Plug-In . SVG Version: 6.00 Build 0)  -->
<!DOCTYPE svg PUBLIC "-//W3C//DTD SVG 1.1//EN" "http://www.w3.org/Graphics/SVG/1.1/DTD/svg11.dtd">
<svg version="1.1" xmlns="http://www.w3.org/2000/svg" xmlns:xlink="http://www.w3.org/1999/xlink" x="0px" y="0px"
	 viewBox="0 0 200 145" enable-background="new 0 0 200 145" xml:space="preserve">
<g id="Layer_1">
</g>
<g id="Layer_2" display="none">
</g>
<g id="Layer_3">
	<g>
		<path fill="#7C8185" d="M197.4,88.1c-2.2-9.8-11-17.2-21.5-17.2V115c12.2,0,22-9.9,22-22v-4.9H197.4z"/>
		<path fill="#7C8185" d="M2.6,88.1H2.1V93c0,12.2,9.9,22,22,22V70.9C13.6,70.9,4.9,78.3,2.6,88.1z"/>
		<path fill="#A5ACB2" d="M197.9,88.1c0-12.2-9.9-22-22-22v44.1C188,110.2,197.9,100.3,197.9,88.1z"/>
		<g>
			<path fill="#A5ACB2" d="M81.3,47.3c-1.9,0-3.7-1.3-4.2-3.2L67.3,8c-0.6-2.3,0.8-4.8,3.1-5.4c2.3-0.6,4.8,0.8,5.4,3.1l9.8,36
				c0.6,2.3-0.8,4.8-3.1,5.4C82,47.3,81.6,47.3,81.3,47.3z"/>
		</g>
		<g>
			<path fill="#A5ACB2" d="M117.1,47.3c-0.4,0-0.8,0-1.2-0.2c-2.3-0.6-3.7-3-3.1-5.4l9.8-36c0.6-2.3,3-3.7,5.4-3.1
				c2.3,0.6,3.7,3,3.1,5.4l-9.8,36C120.8,46,119,47.3,117.1,47.3z"/>
		</g>
		<path fill="#A5ACB2" d="M2.1,88.1c0,12.2,9.9,22,22,22V66.1C12,66.1,2.1,75.9,2.1,88.1z"/>
		<path fill="#616B70" d="M170.4,134.7H29.2c-3.9,0-7-3.1-7-7V50c0-3.9,3.1-7,7-7h141.2c3.9,0,7,3.1,7,7v77.7
			C177.5,131.6,174.3,134.7,170.4,134.7z"/>
		<path opacity="0.35" fill="#A5ACB2" d="M57.6,134.7H29.2c-3.9,0-7-3.1-7-7V50c0-3.9,3.1-7,7-7h28.4V134.7z"/>
		<path opacity="0.35" fill="#A5ACB2" d="M170.8,134.7h-28.4V42.9h28.4c3.9,0,7,3.1,7,7v77.7C177.8,131.6,174.7,134.7,170.8,134.7z"
			/>
		<g>
			<g>
				<circle fill="#A5ACB2" cx="51.7" cy="76.8" r="17.7"/>
				<circle fill="#31383C" cx="51.7" cy="76.8" r="11.3"/>
			</g>
			<g>
				<circle fill="#A5ACB2" cx="147.9" cy="76.8" r="17.7"/>
				<circle fill="#31383C" cx="147.9" cy="76.8" r="11.3"/>
			</g>
		</g>
		<path fill="#7C8185" d="M81.6,104.5c0.2,1.8,0.7,3.6,1.5,5.2h32.2c0.7-1.6,1.3-3.3,1.5-5.2c0.2-1.2-0.8-2.2-1.9-2.2H83.5
			C82.3,102.3,81.4,103.3,81.6,104.5z"/>
		<path fill="#495054" d="M170.4,134.7H29.2c-3.9,0-7-3.1-7-7v7.8c0,3.9,3.1,7,7,7h141.2c3.9,0,7-3.1,7-7v-7.8
			C177.5,131.6,174.3,134.7,170.4,134.7z"/>
		<path fill="#A5ACB2" d="M83.1,109.7c-0.2-0.4-0.3-0.8-0.5-1.2c2.5,6.7,9,11.5,16.6,11.5c7.6,0,14.1-4.8,16.6-11.5
			c-0.2,0.4-0.3,0.8-0.5,1.2H83.1z"/>
	</g>
</g>
</svg>
